# AST/ASF file generated using VICON BodyLanguage
# -----------------------------------------------
:version 1.10
:name VICON
:units
  mass 1.0
  length 0.45
  angle deg
:documentation
   .ast/.asf automatically generated from VICON data using
   VICON BodyBuilder and BodyLanguage model FoxedUp or BRILLIANT.MOD
:root
   order TX TY TZ RX RY RZ
   axis XYZ
   position 0 0 0  
   orientation 0 0 0 
:bonedata
  begin
     id 1 
     name lhipjoint
     direction 0.661853 -0.702389 0.261917 
     length 2.64193 
     axis 0 0 0  XYZ
  end
  begin
     id 2 
     name lfemur
     direction 0.34202 -0.939693 0  
     length 7.01722  
     axis 0 0 20  XYZ
    dof rx ry rz
    limits (-160.0 20.0)
           (-70.0 70.0)
           (-60.0 70.0)
  end
  begin
     id 3 
     name ltibia
     direction 0.34202 -0.939693 0   
     length 8.25008   
     axis 0 0 20   XYZ
    dof rx
    limits (-10.0 170.0)
  end
  begin
     id 4 
     name lfoot
     direction 0.0709916 -0.195048 0.978221   
     length 2.31941   
     axis -90 7.62852e-016 20   XYZ
    dof rx rz
    limits (-45.0 90.0)
           (-70.0 20.0)
  end
  begin
     id 5 
     name ltoes
     direction 1.53586e-011 -4.22017e-011 1   
     length 1.16486   
     axis -90 7.62852e-016 20   XYZ
    dof rx
    limits (-90.0 20.0)
  end
  begin
     id 6 
     name rhipjoint
     direction -0.638185 -0.721362 0.268992   
     length 2.57244  
     axis 0 0 0  XYZ 
  end
  begin
     id 7 
     name rfemur
     direction -0.34202 -0.939693 0   
     length 7.07017   
     axis 0 0 -20   XYZ
    dof rx ry rz
    limits (-160.0 20.0)
           (-70.0 70.0)
           (-70.0 60.0)
  end
  begin
     id 8 
     name rtibia
     direction -0.34202 -0.939693 0   
     length 8.20386   
     axis 0 0 -20   XYZ
    dof rx
    limits (-10.0 170.0)
 end
 begin
     id 9 
     name rfoot
     direction -0.0822429 -0.225961 0.970658   
     length 2.32215  
     axis -90 -7.62852e-016 -20   XYZ
    dof rx rz
    limits (-45.0 90.0)
           (-20.0 70.0)
  end
  begin
     id 10 
     name rtoes
     direction -1.53597e-011 -4.21689e-011 1   
     length 1.16333   
     axis -90 -7.62852e-016 -20   XYZ
    dof rx
    limits (-90.0 20.0)
  end
  begin
     id 11 
     name lowerback
     direction -0.0131557 0.998589 -0.0514484   
     length 2.14993   
     axis 0 0 0   XYZ
    dof rx ry rz
    limits (-20.0 45.0)
           (-30.0 30.0)
           (-30.0 30.0)
  end
  begin
     id 12 
     name upperback
     direction -0.000776481 0.999993 0.00352685   
     length 2.15301   
     axis 0 0 0   XYZ
    dof rx ry rz
    limits (-20.0 45.0)
           (-30.0 30.0)
           (-30.0 30.0)
  end
  begin
     id 13 
     name thorax
     direction 0.00438186 0.999609 0.0276143   
     length 2.15424   
     axis 0 0 0   XYZ
    dof rx ry rz
    limits (-20.0 45.0)
           (-30.0 30.0)
           (-30.0 30.0)
  end
  begin
     id 14 
     name lowerneck
     direction -0.0488006 0.998094 0.0377807   
     length 1.90481   
     axis 0 0 0   XYZ
    dof rx ry rz
    limits (-20.0 45.0)
           (-30.0 30.0)
           (-30.0 30.0)
  end
  begin
     id 15 
     name upperneck
     direction 0.0443769 0.990702 -0.12861   
     length 1.91305   
     axis 0 0 0   XYZ
    dof rx ry rz
    limits (-20.0 45.0)
           (-30.0 30.0)
           (-30.0 30.0)
  end
  begin
     id 16
     name head
     direction 0.0165599 0.998647 -0.0492982  
     length 1.92369  
     axis 0 0 0   XYZ
    dof rx ry rz
    limits (-20.0 45.0)
           (-30.0 30.0)
           (-30.0 30.0)
  end
  begin
     id 17 
     name lclavicle
     direction 0.911936 0.410197 -0.0105506  
     length 3.52622  
     axis 0 0 0   XYZ
    dof ry rz
    limits (-20.0 10.0)
           (0.0 20.0)
  end
  begin
     id 18 
     name lhumerus
     direction 1 -4.48974e-011 -2.48591e-028   
     length 5.47651   
     axis 180 -30 -90   XYZ
    dof rx ry rz
    limits (-60.0 90.0)
           (-90.0 90.0)
           (-90.0 90.0)
  end
  begin
     id 19
     name lradius
     direction 1 -4.48938e-011 -4.40099e-027   
     length 3.09058   
     axis 180 -30 -90   XYZ
    dof rx
    limits (-10.0 170.0)
  end
  begin
     id 20
     name lwrist
     direction 1 -4.49042e-011 -2.99852e-027   
     length 1.54529   
     axis 1.95339e-015 90 90   XYZ
    dof ry
    limits (-180.0 0.0)
 end
  begin
     id 21 
     name lhand
     direction 1 -4.48815e-011 -5.98193e-027   
     length 0.771611   
     axis 3.82337e-015 90 90   XYZ
    dof rx rz
    limits (-90.0 90.0)
           (-45.0 45.0)
  end
  begin
     id 22 
     name lfingers
     direction 1 -4.49034e-011 -1.1993e-026   
     length 0.622093   
     axis 7.64668e-015 90 90   XYZ
    dof rx
    limits (0.0 90.0)
  end
  begin
     id 23
     name lthumb
     direction 0.707107 -6.34867e-011 0.707107   
     length 0.893204   
     axis -90 45 -1.62303e-014   XYZ
    dof rx rz
    limits (-45.0 45.0)
           (-45.0 45.0)
  end
  begin
     id 24 
     name rclavicle
     direction -0.93442 0.355634 -0.0195692   
     length 3.62463  
     axis 0 0 0   XYZ 
    dof ry rz
    limits (-10.0 20.0)
           (-20.0 0.0)
  end
  begin
     id 25 
     name rhumerus
     direction -1 -4.48957e-011 -1.19147e-027  
     length 5.14182   
     axis 180 30 90   XYZ
    dof rx ry rz
    limits (-90.0 60.0)
           (-90.0 90.0)
           (-90.0 90.0)
  end
  begin
     id 26 
     name rradius
     direction -1 -4.48952e-011 -3.81062e-027   
     length 3.35565   
     axis 180 30 90   XYZ
    dof rx
    limits (-10.0 170.0)
  end
  begin
     id 27 
     name rwrist
     direction -1 -4.48973e-011 -2.99621e-027   
     length 1.67782   
     axis 1.95339e-015 -90 -90   XYZ
    dof ry
    limits (-180.0 0.0)
  end
  begin
     id 28
     name rhand
     direction -1 -4.48895e-011 -5.98727e-027   
     length 0.801042   
     axis 3.82337e-015 -90 -90   XYZ
    dof rx rz
    limits (-90.0 90.0)
           (-45.0 45.0)
  end
  begin
     id 29
     name rfingers
     direction -1 -4.49065e-011 -1.19972e-026   
     length 0.645821   
     axis 7.64668e-015 -90 -90   XYZ
    dof rx
    limits (0.0 90.0)
  end
  begin
     id 30
     name rthumb
     direction -0.707107 -6.34957e-011 0.707107   
     length 0.927273   
     axis -90 -45 1.62303e-014   XYZ
    dof rx rz
    limits (-45.0 45.0)
           (-45.0 45.0)
  end
:hierarchy
  begin
    root lhipjoint rhipjoint lowerback
    lhipjoint lfemur
    lfemur ltibia
    ltibia lfoot
    lfoot ltoes
    rhipjoint rfemur
    rfemur rtibia
    rtibia rfoot
    rfoot rtoes
    lowerback upperback
    upperback thorax
    thorax lowerneck lclavicle rclavicle
    lowerneck upperneck
    upperneck head
    lclavicle lhumerus
    lhumerus lradius
    lradius lwrist
    lwrist lhand lthumb
    lhand lfingers
    rclavicle rhumerus
    rhumerus rradius
    rradius rwrist
    rwrist rhand rthumb
    rhand rfingers
  end

#!OML:ASF E:\Style4\Style4.ASF
:FULLY-SPECIFIED
:DEGREES
1
root -0.348578 18.1869 -0.299154 2.87913 -9.37445 1.54021
lowerback 4.29329 0.863012 -2.27484
upperback 3.47792 1.07592 -0.374
thorax 1.13156 0.497296 0.855934
lowerneck -6.50016 -3.4621 -5.00357
upperneck 9.96902 -4.20777 0.840677
head 4.63295 -2.22247 0.922272
rclavicle -6.77547e-015 -2.23144e-014
rhumerus -61.2699 22.1641 -101.585
rradius 71.6794
rwrist -88.5313
rhand -27.9697 -3.05109
rfingers 7.12502
rthumb -1.35662 -33.0265
lclavicle -6.77547e-015 -2.23144e-014
lhumerus -67.9808 -23.4404 106.531
lradius 74.4816
lwrist 78.2909
lhand -19.7096 46.1757
lfingers 7.12502
lthumb 6.6202 76.0522
rfemur -8.41746 5.45981 18.6602
rtibia 18.8869
rfoot -12.4895 -16.743
rtoes -10.6217
lfemur -1.2623 -1.90454 -19.4835
ltibia 11.307
lfoot -15.507 21.2136
ltoes -13.4977
2
root -0.357328 18.1861 -0.300688 2.85621 -9.41804 1.57342
lowerback 4.35926 0.871155 -2.2842
upperback 3.44244 1.084 -0.380487
thorax 1.05796 0.502267 0.852919
lowerneck -6.29376 -3.36763 -4.95715
upperneck 9.9896 -4.09953 0.861994
head 4.59358 -2.16726 0.93109
rclavicle -9.73074e-015 6.58164e-015
rhumerus -61.2539 21.9702 -101.522
rradius 71.6201
rwrist -88.4757
rhand -28.022 -3.0774
rfingers 7.12502
rthumb -1.40713 -33.0525
lclavicle -9.73074e-015 6.58164e-015
lhumerus -67.9 -23.4578 106.5
lradius 74.3037
lwrist 78.1311
lhand -19.5473 46.2475
lfingers 7.12502
lthumb 6.77687 76.1191
rfemur -8.39693 5.48588 18.6575
rtibia 18.8712
rfoot -12.4616 -16.7342
rtoes -10.4916
lfemur -1.28559 -1.84647 -19.4913
ltibia 11.409
lfoot -15.5331 21.2129
ltoes -13.7244
3
root -0.365677 18.1839 -0.301581 2.85818 -9.52327 1.57007
lowerback 4.33271 0.873178 -2.27088
upperback 3.44234 1.08777 -0.366522
thorax 1.07249 0.504071 0.860064
lowerneck -6.15295 -3.27567 -4.96566
upperneck 10.0293 -3.98764 0.906569
head 4.57707 -2.11126 0.956658
rclavicle 3.12092e-014 -2.38914e-014
rhumerus -61.1788 21.8549 -101.45
rradius 71.5333
rwrist -88.4659
rhand -28.0319 -3.16758
rfingers 7.12502
rthumb -1.41671 -33.1426
lclavicle 3.12092e-014 -2.38914e-014
lhumerus -67.7068 -23.4393 106.402
lradius 74.1201
lwrist 78.1089
lhand -19.463 46.3201
lfingers 7.12502
lthumb 6.85826 76.189
rfemur -8.36155 5.57499 18.6745
rtibia 18.7619
rfoot -12.2334 -16.7572
rtoes -11.3775
lfemur -1.35161 -1.73218 -19.4626
ltibia 11.5747
lfoot -15.5757 21.2039
ltoes -13.9404
4
root -0.372525 18.1823 -0.302841 2.8601 -9.61713 1.50858
lowerback 4.33589 0.878356 -2.17202
upperback 3.4483 1.09752 -0.343572
thorax 1.0777 0.510368 0.827937
lowerneck -6.01461 -3.2039 -4.927
upperneck 10.0595 -3.9016 0.895544
head 4.55527 -2.06877 0.953072
rclavicle -2.59662e-015 1.46604e-014
rhumerus -61.1331 21.7311 -101.389
rradius 71.4633
rwrist -88.4344
rhand -28.012 -2.99634
rfingers 7.12502
rthumb -1.39754 -32.9715
lclavicle -2.59662e-015 1.46604e-014
lhumerus -67.6664 -23.357 106.343
lradius 74.1006
lwrist 77.9725
lhand -19.4813 46.3971
lfingers 7.12502
lthumb 6.84056 76.2666
rfemur -8.36282 5.60374 18.7497
rtibia 18.7371
rfoot -12.1065 -16.6886
rtoes -12.2128
lfemur -1.33588 -1.65839 -19.3745
ltibia 11.606
lfoot -15.6335 21.1634
ltoes -13.6739
